<mxfile host="app.diagrams.net" agent="Mozilla/5.0 (Windows NT 10.0; Win64; x64) AppleWebKit/537.36 (KHTML, like Gecko) Chrome/133.0.0.0 Safari/537.36 Edg/133.0.0.0" version="26.0.16">
  <diagram id="C5RBs43oDa-KdzZeNtuy" name="Page-1">
    <mxGraphModel dx="1066" dy="703" grid="1" gridSize="10" guides="1" tooltips="1" connect="1" arrows="1" fold="1" page="1" pageScale="1" pageWidth="827" pageHeight="1169" math="0" shadow="0">
      <root>
        <mxCell id="WIyWlLk6GJQsqaUBKTNV-0" />
        <mxCell id="WIyWlLk6GJQsqaUBKTNV-1" parent="WIyWlLk6GJQsqaUBKTNV-0" />
        <mxCell id="WIyWlLk6GJQsqaUBKTNV-3" value="&lt;div style=&quot;line-height: 150%;&quot;&gt;&lt;b&gt;&lt;font style=&quot;font-size: 15px; line-height: 150%;&quot;&gt;client&lt;/font&gt;&lt;/b&gt;&lt;div&gt;&lt;/div&gt;&lt;/div&gt;" style="rounded=1;whiteSpace=wrap;html=1;fontSize=12;glass=0;strokeWidth=1;shadow=0;" parent="WIyWlLk6GJQsqaUBKTNV-1" vertex="1">
          <mxGeometry x="281.25" y="10" width="47.5" height="40" as="geometry" />
        </mxCell>
        <mxCell id="r7K5c3cP8IPQHwrEYcuQ-10" value="&lt;div style=&quot;line-height: 150%;&quot;&gt;&lt;b&gt;&lt;font style=&quot;font-size: 15px; line-height: 150%;&quot;&gt;client&lt;/font&gt;&lt;/b&gt;&lt;div&gt;&lt;/div&gt;&lt;/div&gt;" style="rounded=1;whiteSpace=wrap;html=1;fontSize=12;glass=0;strokeWidth=1;shadow=0;" parent="WIyWlLk6GJQsqaUBKTNV-1" vertex="1">
          <mxGeometry x="210" y="10" width="47.5" height="40" as="geometry" />
        </mxCell>
        <mxCell id="r7K5c3cP8IPQHwrEYcuQ-19" value="请求" style="edgeStyle=orthogonalEdgeStyle;rounded=0;orthogonalLoop=1;jettySize=auto;html=1;entryX=0.145;entryY=-0.006;entryDx=0;entryDy=0;entryPerimeter=0;labelPosition=left;verticalLabelPosition=middle;align=right;verticalAlign=middle;" parent="WIyWlLk6GJQsqaUBKTNV-1" source="r7K5c3cP8IPQHwrEYcuQ-10" edge="1">
          <mxGeometry relative="1" as="geometry">
            <mxPoint x="233.3499999999999" y="79.63999999999999" as="targetPoint" />
          </mxGeometry>
        </mxCell>
        <mxCell id="r7K5c3cP8IPQHwrEYcuQ-22" value="请求" style="edgeStyle=orthogonalEdgeStyle;rounded=0;orthogonalLoop=1;jettySize=auto;html=1;entryX=0.455;entryY=-0.006;entryDx=0;entryDy=0;entryPerimeter=0;labelPosition=left;verticalLabelPosition=middle;align=right;verticalAlign=middle;" parent="WIyWlLk6GJQsqaUBKTNV-1" source="WIyWlLk6GJQsqaUBKTNV-3" edge="1">
          <mxGeometry relative="1" as="geometry">
            <mxPoint x="304.64999999999986" y="79.63999999999999" as="targetPoint" />
          </mxGeometry>
        </mxCell>
        <mxCell id="r7K5c3cP8IPQHwrEYcuQ-27" value="&lt;div style=&quot;line-height: 150%;&quot;&gt;&lt;b&gt;&lt;font style=&quot;font-size: 15px; line-height: 150%;&quot;&gt;client&lt;/font&gt;&lt;/b&gt;&lt;div&gt;&lt;/div&gt;&lt;/div&gt;" style="rounded=1;whiteSpace=wrap;html=1;fontSize=12;glass=0;strokeWidth=1;shadow=0;" parent="WIyWlLk6GJQsqaUBKTNV-1" vertex="1">
          <mxGeometry x="356.25" y="10" width="47.5" height="40" as="geometry" />
        </mxCell>
        <mxCell id="r7K5c3cP8IPQHwrEYcuQ-28" value="请求" style="edgeStyle=orthogonalEdgeStyle;rounded=0;orthogonalLoop=1;jettySize=auto;html=1;entryX=0.784;entryY=-0.011;entryDx=0;entryDy=0;entryPerimeter=0;labelPosition=left;verticalLabelPosition=middle;align=right;verticalAlign=middle;" parent="WIyWlLk6GJQsqaUBKTNV-1" source="r7K5c3cP8IPQHwrEYcuQ-27" edge="1">
          <mxGeometry relative="1" as="geometry">
            <mxPoint x="380.31999999999994" y="79.33999999999992" as="targetPoint" />
          </mxGeometry>
        </mxCell>
        <mxCell id="r7K5c3cP8IPQHwrEYcuQ-35" value="处理请求" style="edgeStyle=orthogonalEdgeStyle;rounded=0;orthogonalLoop=1;jettySize=auto;html=1;" parent="WIyWlLk6GJQsqaUBKTNV-1" source="r7K5c3cP8IPQHwrEYcuQ-29" target="r7K5c3cP8IPQHwrEYcuQ-32" edge="1">
          <mxGeometry relative="1" as="geometry">
            <Array as="points">
              <mxPoint x="260" y="200" />
              <mxPoint x="260" y="200" />
            </Array>
          </mxGeometry>
        </mxCell>
        <mxCell id="r7K5c3cP8IPQHwrEYcuQ-36" value="建立连接" style="edgeStyle=orthogonalEdgeStyle;rounded=0;orthogonalLoop=1;jettySize=auto;html=1;entryX=0.5;entryY=0;entryDx=0;entryDy=0;" parent="WIyWlLk6GJQsqaUBKTNV-1" source="r7K5c3cP8IPQHwrEYcuQ-29" target="r7K5c3cP8IPQHwrEYcuQ-30" edge="1">
          <mxGeometry relative="1" as="geometry" />
        </mxCell>
        <mxCell id="r7K5c3cP8IPQHwrEYcuQ-37" value="处理请求" style="edgeStyle=orthogonalEdgeStyle;rounded=0;orthogonalLoop=1;jettySize=auto;html=1;" parent="WIyWlLk6GJQsqaUBKTNV-1" source="r7K5c3cP8IPQHwrEYcuQ-29" target="r7K5c3cP8IPQHwrEYcuQ-33" edge="1">
          <mxGeometry relative="1" as="geometry" />
        </mxCell>
        <mxCell id="r7K5c3cP8IPQHwrEYcuQ-29" value="react&lt;div&gt;&lt;br&gt;&lt;/div&gt;&lt;div&gt;select&amp;nbsp; &amp;nbsp; &amp;nbsp; &amp;nbsp; &amp;nbsp; &amp;nbsp; &amp;nbsp; &amp;nbsp; dispatch&lt;/div&gt;" style="rounded=1;whiteSpace=wrap;html=1;" parent="WIyWlLk6GJQsqaUBKTNV-1" vertex="1">
          <mxGeometry x="210" y="80" width="190" height="60" as="geometry" />
        </mxCell>
        <mxCell id="r7K5c3cP8IPQHwrEYcuQ-45" value="写入数据库" style="edgeStyle=orthogonalEdgeStyle;rounded=0;orthogonalLoop=1;jettySize=auto;html=1;" parent="WIyWlLk6GJQsqaUBKTNV-1" source="r7K5c3cP8IPQHwrEYcuQ-38" edge="1">
          <mxGeometry relative="1" as="geometry">
            <mxPoint x="345" y="500" as="targetPoint" />
          </mxGeometry>
        </mxCell>
        <mxCell id="r7K5c3cP8IPQHwrEYcuQ-38" value="ThreadPool" style="rounded=0;html=1;labelPosition=center;verticalLabelPosition=top;align=center;verticalAlign=bottom;labelBorderColor=none;textShadow=0;fillColor=#dae8fc;strokeColor=#6c8ebf;" parent="WIyWlLk6GJQsqaUBKTNV-1" vertex="1">
          <mxGeometry x="110" y="310" width="470" height="130" as="geometry" />
        </mxCell>
        <mxCell id="r7K5c3cP8IPQHwrEYcuQ-47" value="管理在线用户" style="edgeStyle=orthogonalEdgeStyle;rounded=0;orthogonalLoop=1;jettySize=auto;html=1;" parent="WIyWlLk6GJQsqaUBKTNV-1" source="r7K5c3cP8IPQHwrEYcuQ-30" edge="1">
          <mxGeometry relative="1" as="geometry">
            <mxPoint x="40" y="170" as="targetPoint" />
          </mxGeometry>
        </mxCell>
        <mxCell id="r7K5c3cP8IPQHwrEYcuQ-30" value="acceptor" style="rounded=1;whiteSpace=wrap;html=1;" parent="WIyWlLk6GJQsqaUBKTNV-1" vertex="1">
          <mxGeometry x="80" y="200" width="120" height="60" as="geometry" />
        </mxCell>
        <mxCell id="r7K5c3cP8IPQHwrEYcuQ-41" style="edgeStyle=orthogonalEdgeStyle;rounded=0;orthogonalLoop=1;jettySize=auto;html=1;entryX=0.5;entryY=0;entryDx=0;entryDy=0;" parent="WIyWlLk6GJQsqaUBKTNV-1" source="r7K5c3cP8IPQHwrEYcuQ-32" target="r7K5c3cP8IPQHwrEYcuQ-39" edge="1">
          <mxGeometry relative="1" as="geometry" />
        </mxCell>
        <mxCell id="r7K5c3cP8IPQHwrEYcuQ-32" value="Handler&lt;div&gt;&lt;br&gt;&lt;div&gt;read&amp;nbsp; &amp;nbsp; &amp;nbsp; &amp;nbsp;write&lt;/div&gt;&lt;/div&gt;" style="rounded=1;whiteSpace=wrap;html=1;" parent="WIyWlLk6GJQsqaUBKTNV-1" vertex="1">
          <mxGeometry x="245" y="200" width="120" height="60" as="geometry" />
        </mxCell>
        <mxCell id="r7K5c3cP8IPQHwrEYcuQ-43" style="edgeStyle=orthogonalEdgeStyle;rounded=0;orthogonalLoop=1;jettySize=auto;html=1;" parent="WIyWlLk6GJQsqaUBKTNV-1" source="r7K5c3cP8IPQHwrEYcuQ-33" target="r7K5c3cP8IPQHwrEYcuQ-42" edge="1">
          <mxGeometry relative="1" as="geometry" />
        </mxCell>
        <mxCell id="r7K5c3cP8IPQHwrEYcuQ-33" value="Handler&lt;div&gt;&lt;br&gt;&lt;div&gt;read&amp;nbsp; &amp;nbsp; &amp;nbsp; &amp;nbsp;write&lt;/div&gt;&lt;/div&gt;" style="rounded=1;whiteSpace=wrap;html=1;" parent="WIyWlLk6GJQsqaUBKTNV-1" vertex="1">
          <mxGeometry x="414" y="200" width="120" height="60" as="geometry" />
        </mxCell>
        <mxCell id="r7K5c3cP8IPQHwrEYcuQ-39" value="Worker&lt;div&gt;&lt;br&gt;&lt;/div&gt;&lt;div&gt;业务处理&lt;/div&gt;" style="rounded=0;whiteSpace=wrap;html=1;" parent="WIyWlLk6GJQsqaUBKTNV-1" vertex="1">
          <mxGeometry x="200" y="345" width="120" height="60" as="geometry" />
        </mxCell>
        <mxCell id="r7K5c3cP8IPQHwrEYcuQ-42" value="Worker&lt;div&gt;&lt;br&gt;&lt;/div&gt;&lt;div&gt;业务处理&lt;/div&gt;" style="rounded=0;whiteSpace=wrap;html=1;" parent="WIyWlLk6GJQsqaUBKTNV-1" vertex="1">
          <mxGeometry x="403.75" y="345" width="120" height="60" as="geometry" />
        </mxCell>
        <mxCell id="r7K5c3cP8IPQHwrEYcuQ-44" value="mysql" style="rounded=1;whiteSpace=wrap;html=1;" parent="WIyWlLk6GJQsqaUBKTNV-1" vertex="1">
          <mxGeometry x="285" y="500" width="120" height="60" as="geometry" />
        </mxCell>
        <mxCell id="r7K5c3cP8IPQHwrEYcuQ-46" value="Manager" style="rounded=1;whiteSpace=wrap;html=1;" parent="WIyWlLk6GJQsqaUBKTNV-1" vertex="1">
          <mxGeometry x="10" y="100" width="70" height="60" as="geometry" />
        </mxCell>
      </root>
    </mxGraphModel>
  </diagram>
</mxfile>
